# xmcd CD database file
#
# Track frame offsets:
#	150
#	19690
#	40305
#	55613
#	71491
#	92061
#	104391
#	118974
#	130859
#	150616
#	163702
#	173738
#	189869
#	208490
#
# Disc length: 3014 seconds
#
# Revision: 0
# Processed by: cddbd v1.5.2PL0 Copyright (c) Steve Scherf et al.
# Submitted via: CDex 1.51
#
DISCID=bd0bc40e
DTITLE=Relax Music Voyage - Yoga Lounge
DYEAR=2011
DGENRE=New Age
TTITLE0=Clouds
TTITLE1=Ocean Souls
TTITLE2=Dreaming
TTITLE3=Waves
TTITLE4=Wood
TTITLE5=Desert
TTITLE6=Breeze
TTITLE7=Meditation And Serenity
TTITLE8=Silence
TTITLE9=Sound
TTITLE10=Water
TTITLE11=Tranquility
TTITLE12=Cascade
TTITLE13=Colours
EXTD=YEAR: 2011
EXTT0=
EXTT1=
EXTT2=
EXTT3=
EXTT4=
EXTT5=
EXTT6=
EXTT7=
EXTT8=
EXTT9=
EXTT10=
EXTT11=
EXTT12=
EXTT13=
PLAYORDER=
